<svg width="159" height="25" viewBox="0 0 159 25" xmlns="http://www.w3.org/2000/svg"><title>JOINTSWP</title><path d="M3.883 24.255c1.336 0 2.498-.21 3.484-.629.987-.419 1.806-1.008 2.459-1.766.652-.759 1.14-1.668 1.464-2.73.323-1.06.485-2.237.485-3.532V.816H6.397V15.71c0 .795-.064 1.464-.191 2.005-.128.54-.319.978-.573 1.313a2.109 2.109 0 0 1-.963.716c-.387.143-.84.214-1.36.214-.372 0-.69-.029-.955-.087a3.209 3.209 0 0 0-.668-.088c-.35 0-.624.085-.82.255a.942.942 0 0 0-.326.668l-.286 3.135a15.37 15.37 0 0 0 3.628.414zm22.563 0c1.803 0 3.445-.303 4.924-.907 1.48-.605 2.745-1.44 3.795-2.507a11.275 11.275 0 0 0 2.443-3.763c.578-1.442.867-3.002.867-4.678 0-1.665-.289-3.22-.867-4.662a11.188 11.188 0 0 0-2.443-3.755c-1.05-1.061-2.315-1.896-3.795-2.506-1.48-.61-3.121-.915-4.924-.915-1.804 0-3.448.302-4.933.907-1.485.604-2.755 1.437-3.81 2.498a11.128 11.128 0 0 0-2.451 3.755c-.579 1.443-.868 3.002-.868 4.678 0 1.676.29 3.236.868 4.678a11.214 11.214 0 0 0 2.45 3.763c1.056 1.067 2.326 1.902 3.811 2.507 1.485.604 3.13.907 4.933.907zm0-4.456c-1.04 0-1.965-.167-2.777-.501a5.433 5.433 0 0 1-2.053-1.456c-.557-.636-.983-1.413-1.28-2.331-.298-.918-.446-1.955-.446-3.11 0-1.146.148-2.178.445-3.096.298-.917.724-1.694 1.281-2.33A5.51 5.51 0 0 1 23.67 5.51c.812-.34 1.737-.509 2.777-.509 1.029 0 1.946.17 2.752.51a5.518 5.518 0 0 1 2.045 1.463c.557.637.984 1.414 1.281 2.331.297.918.446 1.95.446 3.095 0 1.156-.149 2.193-.446 3.111-.297.918-.724 1.695-1.28 2.331a5.446 5.446 0 0 1-2.046 1.456c-.806.334-1.723.501-2.752.501zM46.94 24V.816h-5.41V24h5.41zm9.038 0V11.573c0-.34-.01-.703-.032-1.09a49.43 49.43 0 0 0-.08-1.186L66.799 23.11c.266.34.541.573.828.7.286.127.636.191 1.05.191h2.8V.816h-4.741v12.268a28.227 28.227 0 0 0 .127 2.483L55.851 1.644a4.182 4.182 0 0 0-.398-.43 1.434 1.434 0 0 0-.366-.247 1.503 1.503 0 0 0-.43-.119 4.565 4.565 0 0 0-.588-.032h-2.832V24h4.741zm29.628 0V5.08h6.524V.817H73.704v4.265h6.524V24h5.378zm15.021.255c1.316 0 2.49-.2 3.525-.597 1.034-.398 1.904-.944 2.61-1.639a7.041 7.041 0 0 0 1.614-2.443 8.062 8.062 0 0 0 .557-3.007c0-.965-.148-1.79-.445-2.474a5.496 5.496 0 0 0-1.17-1.743 6.341 6.341 0 0 0-1.655-1.177 17.005 17.005 0 0 0-1.901-.804 41.529 41.529 0 0 0-1.902-.62c-.62-.186-1.172-.39-1.654-.613-.483-.223-.873-.488-1.17-.795-.297-.308-.445-.695-.445-1.162 0-.732.246-1.313.74-1.742.493-.43 1.243-.645 2.251-.645a4.87 4.87 0 0 1 1.56.231c.456.154.861.326 1.217.517.355.191.673.363.954.517.281.154.544.231.788.231.276 0 .501-.064.676-.191a2.02 2.02 0 0 0 .501-.573l1.337-2.498a7.813 7.813 0 0 0-1.408-1.026 10.53 10.53 0 0 0-1.695-.78 10.916 10.916 0 0 0-1.917-.493 12.71 12.71 0 0 0-2.077-.167c-1.273 0-2.402.193-3.389.58-.986.388-1.82.905-2.498 1.552a6.572 6.572 0 0 0-2.069 4.758c0 1.082.149 1.991.446 2.728.297.738.687 1.353 1.17 1.846a5.976 5.976 0 0 0 1.646 1.194 13.83 13.83 0 0 0 1.894.763c.647.207 1.278.396 1.893.565.616.17 1.165.366 1.647.589.483.223.873.504 1.17.843.297.34.445.78.445 1.321 0 .934-.27 1.615-.811 2.045-.541.43-1.3.644-2.276.644-.72 0-1.347-.1-1.877-.302a8.97 8.97 0 0 1-1.408-.668 69.678 69.678 0 0 1-1.098-.669c-.324-.201-.645-.302-.963-.302-.244 0-.472.058-.684.175-.212.117-.377.27-.494.461l-1.59 2.514c.455.457.991.87 1.606 1.242.616.37 1.273.692 1.973.962.7.27 1.425.48 2.172.629.748.148 1.483.223 2.204.223zM118.512 24l6.667-19.54c.085-.254.16-.525.223-.811.064.286.138.557.223.811L132.276 24h1.464l7.08-22.515h-1.24a.625.625 0 0 0-.39.127.565.565 0 0 0-.215.302l-5.68 18.506a6.022 6.022 0 0 0-.16.676c-.042.239-.09.485-.143.74a16.145 16.145 0 0 0-.167-.748 7.61 7.61 0 0 0-.199-.668l-6.365-18.506a.792.792 0 0 0-.222-.31.552.552 0 0 0-.366-.12h-.446a.592.592 0 0 0-.382.128.683.683 0 0 0-.222.302l-6.365 18.506c-.075.212-.138.44-.191.684a46.87 46.87 0 0 0-.16.764l-.15-.764a7.185 7.185 0 0 0-.168-.684l-5.68-18.506c-.085-.286-.281-.43-.589-.43h-1.352L117.064 24h1.448zm28.037 0v-9.07h4.185c1.241 0 2.355-.167 3.342-.501.986-.334 1.824-.801 2.514-1.4a6.043 6.043 0 0 0 1.583-2.14c.366-.828.549-1.735.549-2.721 0-2.143-.671-3.793-2.013-4.949-1.342-1.156-3.334-1.734-5.975-1.734h-5.808V24h1.623zm4.185-10.375h-4.185V2.773h4.185c2.111 0 3.7.467 4.766 1.4 1.066.934 1.599 2.265 1.599 3.995 0 .785-.146 1.509-.438 2.172a4.98 4.98 0 0 1-1.257 1.726c-.546.488-1.212.87-1.997 1.146-.785.275-1.676.413-2.673.413z" fill="#0A0A0A"/></svg>