<?xml version="1.0" encoding="UTF-8"?>
<svg width="159px" height="25px" viewBox="0 0 159 25" version="1.1" xmlns="http://www.w3.org/2000/svg" xmlns:xlink="http://www.w3.org/1999/xlink">
    <!-- Generator: Sketch 63.1 (92452) - https://sketch.com -->
    <title>JOINTSWP</title>
    <desc>Created with Sketch.</desc>
    <g id="Page-1" stroke="none" stroke-width="1" fill="none" fill-rule="evenodd">
        <g id="Artboard" transform="translate(0.000000, -7.000000)" fill="#0A0A0A" fill-rule="nonzero">
            <path d="M3.88252005,31.2545915 C5.21912532,31.2545915 6.38069894,31.0450839 7.36724092,30.6260688 C8.3537829,30.2070536 9.17324922,29.6183108 9.82563989,28.8598404 C10.4780306,28.1013699 10.9659976,27.1917358 11.2895409,26.130938 C11.6130842,25.0701401 11.7748559,23.8926545 11.7748559,22.5984812 L11.7748559,22.5984812 L11.7748559,7.81626346 L6.39661091,7.81626346 L6.39661091,22.709865 C6.39661091,23.5054633 6.33296304,24.173766 6.2056673,24.7147729 C6.07837156,25.2557798 5.88742795,25.6933589 5.63283647,26.0275102 C5.37824499,26.3616615 5.05735365,26.600341 4.67016244,26.7435487 C4.28297123,26.8867564 3.82948016,26.9583603 3.30968922,26.9583603 C2.93840998,26.9583603 2.62017064,26.9291883 2.35497118,26.8708445 C2.08977172,26.8125006 1.86700418,26.7833286 1.68666855,26.7833286 C1.33660526,26.7833286 1.06344982,26.8681925 0.867202225,27.0379201 C0.670954627,27.2076478 0.562222849,27.4304153 0.541006893,27.7062227 L0.541006893,27.7062227 L0.254591479,30.8408803 C0.891070176,30.989392 1.50368092,31.0954718 2.09242372,31.1591197 C2.68116651,31.2227675 3.27786529,31.2545915 3.88252005,31.2545915 Z M26.4456899,31.2545915 C28.2490462,31.2545915 29.8906308,30.9522641 31.3704438,30.3476093 C32.8502568,29.7429546 34.1152582,28.9075763 35.165448,27.8414745 C36.2156379,26.7753726 37.0298002,25.5209792 37.607935,24.0782942 C38.1860698,22.6356091 38.4751372,21.0762363 38.4751372,19.4001757 C38.4751372,17.7347232 38.1860698,16.1806543 37.607935,14.7379693 C37.0298002,13.2952842 36.2156379,12.0435428 35.165448,10.982745 C34.1152582,9.92194715 32.8502568,9.08656886 31.3704438,8.47661011 C29.8906308,7.86665135 28.2490462,7.56167198 26.4456899,7.56167198 C24.6423336,7.56167198 22.9980969,7.86399936 21.51298,8.46865412 C20.027863,9.07330888 18.7575576,9.90603518 17.7020638,10.966833 C16.6465699,12.0276308 15.8297556,13.2793723 15.2516208,14.7220573 C14.673486,16.1647424 14.3844186,17.7241152 14.3844186,19.4001757 C14.3844186,21.0762363 14.673486,22.6356091 15.2516208,24.0782942 C15.8297556,25.5209792 16.6465699,26.7753726 17.7020638,27.8414745 C18.7575576,28.9075763 20.027863,29.7429546 21.51298,30.3476093 C22.9980969,30.9522641 24.6423336,31.2545915 26.4456899,31.2545915 Z M26.4456899,26.7992406 C25.406108,26.7992406 24.4805619,26.6321649 23.6690515,26.2980136 C22.8575412,25.9638623 22.1733266,25.4785473 21.6164078,24.8420686 C21.0594889,24.2055899 20.6325178,23.4285555 20.3354944,22.5109654 C20.038471,21.5933753 19.8899593,20.5564454 19.8899593,19.4001757 C19.8899593,18.2545141 20.038471,17.2228882 20.3354944,16.3052981 C20.6325178,15.387708 21.0594889,14.6106735 21.6164078,13.9741949 C22.1733266,13.3377162 22.8575412,12.8497492 23.6690515,12.5102938 C24.4805619,12.1708385 25.406108,12.0011109 26.4456899,12.0011109 C27.4746638,12.0011109 28.3922539,12.1708385 29.1984602,12.5102938 C30.0046666,12.8497492 30.6862292,13.3377162 31.243148,13.9741949 C31.8000669,14.6106735 32.227038,15.387708 32.5240614,16.3052981 C32.8210848,17.2228882 32.9695965,18.2545141 32.9695965,19.4001757 C32.9695965,20.5564454 32.8210848,21.5933753 32.5240614,22.5109654 C32.227038,23.4285555 31.8000669,24.2055899 31.243148,24.8420686 C30.6862292,25.4785473 30.0046666,25.9638623 29.1984602,26.2980136 C28.3922539,26.6321649 27.4746638,26.7992406 26.4456899,26.7992406 Z M46.9403039,31 L46.9403039,7.81626346 L41.530235,7.81626346 L41.530235,31 L46.9403039,31 Z M55.9783014,31 L55.9783014,18.5727534 C55.9783014,18.2332981 55.9676934,17.8699749 55.9464775,17.4827837 C55.9252615,17.0955925 55.8987416,16.7004453 55.8669176,16.2973421 L55.8669176,16.2973421 L66.7984393,30.1089298 C67.0636387,30.4483851 67.3394462,30.6817607 67.6258616,30.8090564 C67.912277,30.9363521 68.2623403,31 68.6760514,31 L68.6760514,31 L71.4765577,31 L71.4765577,7.81626346 L66.7347914,7.81626346 L66.7347914,20.0843903 C66.7347914,20.4556696 66.7453994,20.8508168 66.7666153,21.2698319 C66.7878313,21.6888471 66.8196552,22.1211222 66.8620871,22.5666573 L66.8620871,22.5666573 L55.8510057,8.64368576 C55.702494,8.46335013 55.5698942,8.32014243 55.4532065,8.21406264 C55.3365187,8.10798286 55.214527,8.02577103 55.0872312,7.96742715 C54.9599355,7.90908327 54.8167278,7.86930335 54.6576081,7.84808739 C54.4984884,7.82687144 54.3022408,7.81626346 54.0688653,7.81626346 L54.0688653,7.81626346 L51.2365351,7.81626346 L51.2365351,31 L55.9783014,31 Z M85.6063848,31 L85.6063848,12.0806707 L92.1302914,12.0806707 L92.1302914,7.81626346 L73.7042331,7.81626346 L73.7042331,12.0806707 L80.2281398,12.0806707 L80.2281398,31 L85.6063848,31 Z M100.627282,31.2545915 C101.942671,31.2545915 103.117505,31.0556919 104.151783,30.6578927 C105.186061,30.2600935 106.055915,29.7137826 106.761345,29.0189601 C107.466776,28.3241375 108.005131,27.5099751 108.37641,26.5764731 C108.747689,25.642971 108.933329,24.640517 108.933329,23.5691112 C108.933329,22.6037852 108.784817,21.7790149 108.487794,21.0948003 C108.190771,20.4105857 107.800927,19.8297989 107.318264,19.3524398 C106.835601,18.8750808 106.283986,18.4825856 105.66342,18.1749543 C105.042853,17.8673229 104.409026,17.5994714 103.76194,17.3713999 C103.114853,17.1433284 102.481026,16.9364728 101.860459,16.7508332 C101.239893,16.5651935 100.688278,16.36099 100.205615,16.1382224 C99.7229519,15.9154549 99.3331087,15.6502554 99.0360853,15.3426241 C98.7390619,15.0349927 98.5905502,14.6478015 98.5905502,14.1810504 C98.5905502,13.4490999 98.8371857,12.8683131 99.3304567,12.43869 C99.8237277,12.0090669 100.574242,11.7942553 101.582,11.7942553 C102.165439,11.7942553 102.68523,11.8711632 103.141373,12.0249788 C103.597516,12.1787945 104.003271,12.3511742 104.358638,12.5421178 C104.714006,12.7330614 105.032245,12.905441 105.313356,13.0592567 C105.594468,13.2130724 105.857015,13.2899803 106.100999,13.2899803 C106.376806,13.2899803 106.602226,13.2263324 106.777257,13.0990366 C106.952289,12.9717409 107.119365,12.7807973 107.278484,12.5262058 L107.278484,12.5262058 L108.61509,10.0280269 C108.201379,9.64613971 107.731975,9.30403241 107.206881,9.00170503 C106.681786,8.69937765 106.116911,8.43948218 105.512256,8.22201863 C104.907601,8.00455507 104.268471,7.84013141 103.594864,7.72874764 C102.921257,7.61736386 102.229087,7.56167198 101.518352,7.56167198 C100.245395,7.56167198 99.1156451,7.75526758 98.1291031,8.14245879 C97.1425611,8.52965 96.3098349,9.04678894 95.6309242,9.69387561 C94.9520136,10.3409623 94.4375267,11.0782168 94.0874634,11.9056391 C93.7374001,12.7330614 93.5623685,13.5816997 93.5623685,14.4515539 C93.5623685,15.5335677 93.7108802,16.4432018 94.0079036,17.1804563 C94.304927,17.9177108 94.6947702,18.5329735 95.1774332,19.0262445 C95.6600962,19.5195155 96.2090591,19.9173147 96.8243218,20.2196421 C97.4395845,20.5219694 98.0707592,20.7765609 98.7178459,20.9834165 C99.3649326,21.1902721 99.9961073,21.3785637 100.61137,21.5482913 C101.226633,21.718019 101.775596,21.9142666 102.258259,22.1370341 C102.740922,22.3598017 103.130765,22.6409131 103.427788,22.9803684 C103.724812,23.3198237 103.873323,23.7600548 103.873323,24.3010617 C103.873323,25.2345638 103.60282,25.9161264 103.061813,26.3457495 C102.520806,26.7753726 101.762336,26.9901842 100.786402,26.9901842 C100.065059,26.9901842 99.4391884,26.8894084 98.9087895,26.6878568 C98.3783906,26.4863052 97.9089876,26.2635377 97.5005804,26.0195542 C97.0921732,25.7755707 96.726198,25.5528032 96.4026547,25.3512516 C96.0791113,25.1497 95.75822,25.0489242 95.4399806,25.0489242 C95.1959971,25.0489242 94.9679256,25.1072681 94.755766,25.2239558 C94.5436065,25.3406436 94.3791828,25.4944593 94.262495,25.6854029 L94.262495,25.6854029 L92.6712983,28.1994937 C93.1274414,28.6556368 93.6631443,29.069348 94.278407,29.4406272 C94.8936698,29.8119064 95.5513644,30.1327978 96.251491,30.4033012 C96.9516175,30.6738047 97.6756121,30.8833122 98.4234745,31.0318239 C99.171337,31.1803356 99.9059395,31.2545915 100.627282,31.2545915 Z M118.512333,31 L125.179448,11.460104 C125.264312,11.2055125 125.338567,10.9350091 125.402215,10.6485937 C125.465863,10.9350091 125.540119,11.2055125 125.624983,11.460104 L125.624983,11.460104 L132.276185,31 L133.740086,31 L140.820912,8.48456609 L139.579778,8.48456609 C139.431267,8.48456609 139.301319,8.526998 139.189935,8.61186183 C139.078551,8.69672566 139.006947,8.79750145 138.975124,8.91418921 L138.975124,8.91418921 L133.294551,27.4198073 C133.230903,27.6319669 133.177863,27.8573864 133.135431,28.0960659 C133.093,28.3347455 133.045264,28.581381 132.992224,28.8359724 C132.939184,28.570773 132.883492,28.3214855 132.825148,28.08811 C132.766804,27.8547344 132.700504,27.6319669 132.626249,27.4198073 L132.626249,27.4198073 L126.261462,8.91418921 C126.208422,8.78689347 126.134166,8.68346568 126.038694,8.60390585 C125.943222,8.52434601 125.82123,8.48456609 125.672719,8.48456609 L125.672719,8.48456609 L125.227184,8.48456609 C125.078672,8.48456609 124.951376,8.526998 124.845296,8.61186183 C124.739217,8.69672566 124.664961,8.79750145 124.622529,8.91418921 L124.622529,8.91418921 L118.257742,27.4198073 C118.183486,27.6319669 118.119838,27.8600384 118.066798,28.1040219 C118.013758,28.3480054 117.960719,28.6025969 117.907679,28.8677964 C117.854639,28.6025969 117.804251,28.3480054 117.756515,28.1040219 C117.708779,27.8600384 117.653087,27.6319669 117.589439,27.4198073 L117.589439,27.4198073 L111.908867,8.91418921 C111.824003,8.6277738 111.627755,8.48456609 111.320124,8.48456609 L111.320124,8.48456609 L109.967607,8.48456609 L117.064344,31 L118.512333,31 Z M146.54922,31 L146.54922,21.9301786 L150.734067,21.9301786 C151.975201,21.9301786 153.089039,21.7631029 154.075581,21.4289516 C155.062123,21.0948003 155.900153,20.6280492 156.589671,20.0286985 C157.27919,19.4293477 157.806937,18.7159611 158.172912,17.8885388 C158.538887,17.0611165 158.721875,16.1541344 158.721875,15.1675924 C158.721875,13.0247808 158.05092,11.3752402 156.709011,10.2189705 C155.367102,9.06270091 153.375454,8.48456609 150.734067,8.48456609 L150.734067,8.48456609 L144.926199,8.48456609 L144.926199,31 L146.54922,31 Z M150.734067,20.6253972 L146.54922,20.6253972 L146.54922,9.77343545 L150.734067,9.77343545 C152.845055,9.77343545 154.4336,10.2401865 155.499702,11.1736886 C156.565804,12.1071907 157.098854,13.4384919 157.098854,15.1675924 C157.098854,15.9525828 156.952995,16.6765773 156.661275,17.339576 C156.369556,18.0025746 155.950541,18.5780574 155.40423,19.0660244 C154.857919,19.5539914 154.192268,19.9358786 153.407278,20.2116861 C152.622288,20.4874935 151.731217,20.6253972 150.734067,20.6253972 L150.734067,20.6253972 Z" id="JOINTSWP"></path>
        </g>
    </g>
</svg>